<svg id="Layer_1" data-name="Layer 1" xmlns="http://www.w3.org/2000/svg" viewBox="0 0 264.32 264.32"><defs><style>.cls-1{fill:#231f20;}</style></defs><title>logo</title><path class="cls-1" d="M132.16,0A132.16,132.16,0,1,0,264.32,132.16,132.16,132.16,0,0,0,132.16,0Zm0,241.71A109.55,109.55,0,1,1,241.71,132.16,109.55,109.55,0,0,1,132.16,241.71Z"/><path class="cls-1" d="M230.92,132.16A98.76,98.76,0,1,0,52.55,190.61L84.25,164,57.1,196.34A99.8,99.8,0,0,0,68,207.22l32.34-27.15-26.61,31.7a98.77,98.77,0,0,0,116.84,0l-26-31.07,31.73,26.51a100.9,100.9,0,0,0,10.94-10.94l-26.51-31.73,31.07,26A98.29,98.29,0,0,0,230.92,132.16Zm-57.28-14.68a44,44,0,1,1-82.89-.2L62.43,82.52,94.82,108.9A44.24,44.24,0,0,1,108.9,94.82L82.52,62.43l34.76,28.32a44,44,0,0,1,29.56-.07L183.21,60.9,155.43,94.82a44.38,44.38,0,0,1,14.07,14.07l33.92-27.78Z"/><path class="cls-1" d="M132.16,97.41a34.75,34.75,0,1,0,34.75,34.75A34.75,34.75,0,0,0,132.16,97.41Zm0,51.63A16.88,16.88,0,1,1,149,132.16,16.87,16.87,0,0,1,132.16,149Z"/></svg>